# xmcd
#
# Track frame offsets:
# 150
# 17391
# 38193
# 56735
# 73870
# 91421
# 111101
# 129222
# 145709
# 165776
# 186354
# 196659
# 210610
# 227178
# 242366
# 260142
#
# Disc length: 3694 seconds
#
#
# Revision: 1
# Processed by: cddbd v1.5PL3 Copyright (c) Steve Scherf et al.
# Submitted via: FreeRIP 2.60 
#
DISCID=d40e6c10
DTITLE=Varios - Direito de Viver 2
DYEAR=2003
DGENRE=Country
TTITLE0=Temporal de Amor - Chitaozinho e Xororo
TTITLE1=Yolanda - Zeze Di Camargo e Luciano
TTITLE2=Aparencias - Leonardo
TTITLE3=Como eu chorei - Bruno e Marrone
TTITLE4=Tocando em frente - Daniel
TTITLE5=Como nossos pais - Cleiton e Camargo
TTITLE6=Aqueles Olhos - Cezar e Paulinho
TTITLE7=Clima de rodeio - Rionegro e Solimoes
TTITLE8=Estou apaixonado - Guilherme e Santiago
TTITLE9=Canção da America - Gian e Giovani
TTITLE10=Help - KLB
TTITLE11=Legua Tirana - Chrystian e Ralf
TTITLE12=Minha luz - Rick e Renner
TTITLE13=Quatro semanas de amor - Pedro e Thiago
TTITLE14=Cidadão - Sergio Reis
TTITLE15=O amanhã - Royce do Cavaco
EXTD=YEAR: 2003
EXTT0=
EXTT1=
EXTT2=
EXTT3=
EXTT4=
EXTT5=
EXTT6=
EXTT7=
EXTT8=
EXTT9=
EXTT10=
EXTT11=
EXTT12=
EXTT13=
EXTT14=
EXTT15=
PLAYORDER=
